<?xml version="1.0" standalone="no"?>
<!DOCTYPE svg PUBLIC "-//W3C//DTD SVG 20010904//EN"
 "http://www.w3.org/TR/2001/REC-SVG-20010904/DTD/svg10.dtd">
<svg version="1.0" xmlns="http://www.w3.org/2000/svg"
 width="250.000000pt" height="250.000000pt" viewBox="0 0 250.000000 250.000000"
 preserveAspectRatio="xMidYMid meet">
<metadata>
Created by potrace 1.14, written by Peter Selinger 2001-2017
</metadata>
<g transform="translate(0.000000,250.000000) scale(0.100000,-0.100000)"
fill="#000000" stroke="none">
<path d="M1115 2299 c-66 -49 -127 -95 -135 -102 -8 -6 -45 -33 -81 -59 l-67
-47 -202 75 c-112 41 -205 72 -208 70 -3 -3 -5 -141 -6 -306 l-1 -300 835 2
834 3 1 298 c0 165 -3 300 -6 303 -3 2 -37 -8 -75 -22 -38 -14 -98 -36 -134
-49 -36 -13 -96 -35 -134 -49 l-69 -25 -86 62 c-47 34 -88 64 -91 67 -23 24
-230 170 -241 169 -8 0 -68 -41 -134 -90z"/>
<path d="M419 1501 c0 -14 -2 -36 -3 -48 -2 -13 2 -24 8 -24 6 -1 381 -3 833
-3 563 -1 824 1 826 9 2 5 3 28 2 50 l-1 40 -832 1 -832 0 -1 -25z"/>
<path d="M455 1382 c-3 -3 -5 -306 -5 -674 l0 -668 220 0 220 0 0 184 0 184
77 68 c42 38 82 75 89 82 14 13 34 16 34 5 0 -5 22 -31 48 -59 45 -48 161
-177 203 -225 11 -13 52 -59 92 -103 40 -43 84 -92 98 -108 l25 -28 263 2 263
3 -20 22 c-17 21 -124 137 -258 282 -70 75 -93 101 -204 222 -52 56 -118 128
-146 158 l-52 55 28 25 c34 32 166 150 192 172 10 9 51 45 90 80 172 153 255
227 306 275 l55 50 -261 0 -261 -1 -38 -34 c-21 -18 -58 -52 -83 -75 -25 -22
-115 -104 -200 -181 -85 -77 -172 -157 -195 -177 -92 -85 -121 -108 -132 -108
-10 0 -13 64 -13 288 l0 288 -215 0 c-118 1 -217 -1 -220 -4z"/>
</g>
</svg>
